HIERARCHY
ROOT Hips
{
	OFFSET 0.000000 0.000000 0.000000
	CHANNELS 6 Xposition Yposition Zposition Zrotation Yrotation Xrotation 
	JOINT LHipJoint
	{
		OFFSET 0.000000 0.000000 0.000000
		CHANNELS 3 Zrotation Yrotation Xrotation
		JOINT LeftUpLeg
		{
			OFFSET 1.363060 -1.794630 0.839290
			CHANNELS 3 Zrotation Yrotation Xrotation
			JOINT LeftLeg
			{
				OFFSET 2.448110 -6.726130 0.000000
				CHANNELS 3 Zrotation Yrotation Xrotation
				JOINT LeftFoot
				{
					OFFSET 2.562200 -7.039590 0.000000
					CHANNELS 3 Zrotation Yrotation Xrotation
					JOINT LeftToeBase
					{
						OFFSET 0.157640 -0.433110 2.322550
						CHANNELS 3 Zrotation Yrotation Xrotation
						End Site
						{
							OFFSET 0.000000 0.000000 0.000000
						}
					}
				}
			}
		}
	}
	JOINT RHipJoint
	{
		OFFSET 0.000000 0.000000 0.000000
		CHANNELS 3 Zrotation Yrotation Xrotation
		JOINT RightUpLeg
		{
			OFFSET -1.305520 -1.794630 0.839290
			CHANNELS 3 Zrotation Yrotation Xrotation
			JOINT RightLeg
			{
				OFFSET -2.542530 -6.985550 0.000000
				CHANNELS 3 Zrotation Yrotation Xrotation
				JOINT RightFoot
				{
					OFFSET -2.568260 -7.056230 0.000000
					CHANNELS 3 Zrotation Yrotation Xrotation
					JOINT RightToeBase
					{
						OFFSET -0.164730 -0.452590 2.363150
						CHANNELS 3 Zrotation Yrotation Xrotation
						End Site
						{
							OFFSET 0.000000 0.000000 0.000000
						}
					}
				}
			}
		}
	}
}
MOTION
Frames: 16
Frame Time: 0.008333
3.147575 16.446607 -0.016819 54.401246 88.605463 77.042530 -8.426020 -1.384772 1.237158 -8.231757 -4.832017 -52.125915 -2.381468 0.811786 23.031364 -0.148152 -1.362747 3.795241 0.099300 -0.000000 -31.169600 10.892580 -2.772977 -2.819098 4.081501 -2.974945 -0.938649 1.263276 -2.258939 25.885384 0.315995 5.235036 7.251877 1.163700 0.000000 -84.900600
3.337146 16.416503 -0.022911 56.734848 88.184639 79.257771 -8.252132 -1.263227 1.113409 -8.745155 -5.286393 -52.505543 -2.222343 1.042345 25.790647 -0.037214 -0.745369 3.468473 0.211800 -0.000000 -29.388600 11.271039 -2.679994 -2.912080 3.071588 -3.395744 -1.881605 0.980116 -2.495788 28.652086 0.270720 5.726744 9.055753 1.503800 0.000000 -86.633300
3.521185 16.392967 -0.029767 57.461509 87.707428 79.859651 -8.099702 -1.166915 0.975727 -9.282604 -5.714139 -52.677135 -2.087800 1.226729 28.244558 0.082765 -0.094122 2.824276 0.321700 -0.000000 -27.971000 11.612035 -2.560964 -3.007874 2.063501 -3.757696 -2.941056 0.686511 -2.722400 31.551042 0.185154 6.119019 11.093821 1.881800 0.000000 -87.418600
3.699995 16.375964 -0.038387 57.065113 87.211694 79.335747 -7.969604 -1.095661 0.826858 -9.813306 -6.096265 -52.653838 -1.980008 1.368283 30.384275 0.211131 0.583412 1.884637 0.416900 -0.000001 -26.959200 11.909622 -2.420350 -3.098201 1.114116 -4.029600 -4.097021 0.395558 -2.932808 34.533947 0.054911 6.324696 13.280947 2.253000 -0.000000 -87.142700
3.874055 16.365361 -0.050151 55.765703 86.737352 77.911035 -7.872671 -1.054752 0.669149 -10.290118 -6.407387 -52.463107 -1.895456 1.472796 32.223570 0.347051 1.271416 0.694374 0.483800 0.000001 -26.350700 12.147609 -2.267608 -3.178314 0.296316 -4.183081 -5.325483 0.121280 -3.124042 37.547304 -0.119013 6.242178 15.508278 2.545300 -0.000000 -85.803900
4.044097 16.360828 -0.064963 53.838939 86.286922 75.855557 -7.804509 -1.035661 0.508475 -10.709882 -6.649872 -52.108595 -1.832564 1.543822 33.759504 0.491742 1.976621 -0.672123 0.516700 -0.000000 -26.110800 12.333012 -2.105196 -3.248973 -0.389952 -4.242123 -6.609448 -0.128547 -3.296526 40.556253 -0.329179 5.812814 17.650403 2.685700 0.000001 -83.529700
4.210898 16.362036 -0.083154 51.402766 85.872625 73.287248 -7.769845 -1.037254 0.348828 -11.051568 -6.816000 -51.613194 -1.785866 1.586951 35.011574 0.643551 2.688655 -2.131774 0.510600 0.000000 -26.179499 12.462475 -1.940702 -3.311419 -0.918901 -4.218259 -7.929752 -0.349288 -3.452524 43.516296 -0.567860 4.966598 19.586728 2.593500 -0.000000 -80.578000
4.375325 16.368647 -0.104462 48.586931 85.496066 70.335422 -7.768872 -1.054631 0.194784 -11.309086 -6.906347 -50.998140 -1.750386 1.607543 36.000737 0.799253 3.397188 -3.595679 0.466900 0.000000 -26.475600 12.539782 -1.779266 -3.367579 -1.286269 -4.134361 -9.269989 -0.542010 -3.594796 46.387951 -0.827668 3.664394 21.211624 2.210200 -0.000001 -77.267700
4.538136 16.380303 -0.128249 45.526420 85.154680 67.135647 -7.799064 -1.081338 0.050430 -11.485496 -6.924965 -50.286384 -1.721832 1.610987 36.752269 0.953749 4.087995 -4.980743 0.392300 0.000000 -26.903600 12.572283 -1.623860 -3.418858 -1.498658 -4.014631 -10.617016 -0.711167 -3.725515 49.135138 -1.102570 1.905712 22.438577 1.514000 -0.000000 -73.892900
4.699963 16.396735 -0.153761 42.342792 84.847568 63.813271 -7.857298 -1.111886 -0.081643 -11.585997 -6.876244 -49.505307 -1.696734 1.602713 37.296750 1.100396 4.741028 -6.219497 0.297501 0.000000 -27.369200 12.567252 -1.476276 -3.466442 -1.563950 -3.878536 -11.961203 -0.862173 -3.846059 51.726258 -1.387342 -0.264147 23.201303 0.529800 -0.000001 -70.645300
4.861234 16.417635 -0.179908 39.182902 84.572719 60.518603 -7.936852 -1.139278 -0.199138 -11.626136 -6.769042 -48.677907 -1.673508 1.587041 37.662347 1.232558 5.336193 -7.264373 0.195300 -0.000000 -27.795700 12.535373 -1.336679 -3.510569 -1.502209 -3.746487 -13.295824 -0.999927 -3.957403 54.135516 -1.676090 -2.745308 23.454378 -0.665500 0.000000 -67.593400
5.022195 16.442781 -0.205600 36.174709 84.331832 57.384506 -8.030876 -1.158582 -0.301665 -11.621988 -6.611424 -47.826309 -1.651949 1.567404 37.876579 1.344269 5.852204 -8.092006 0.098100 -0.000000 -28.135900 12.485993 -1.205182 -3.551547 -1.333896 -3.634019 -14.617666 -1.127528 -4.060488 56.341516 -1.961425 -5.394732 23.178876 -1.954300 -0.000000 -64.704001
5.182838 16.471962 -0.229806 33.429899 84.128586 54.526089 -8.132799 -1.165980 -0.389271 -11.591043 -6.411778 -46.967172 -1.633156 1.545930 37.962605 1.431271 6.270432 -8.702693 0.015200 -0.000000 -28.373801 12.427148 -1.082414 -3.588765 -1.082214 -3.552781 -15.925223 -1.246117 -4.156171 58.327749 -2.233887 -8.040353 22.387073 -3.196500 -0.000000 -61.877800
5.343006 16.504994 -0.251654 31.029116 83.967338 52.028898 -8.236324 -1.159808 -0.463881 -11.549912 -6.177928 -46.112678 -1.619179 1.523508 37.937551 1.491598 6.578094 -9.116205 -0.048401 0.000000 -28.520300 12.365128 -0.968700 -3.621934 -0.770558 -3.508836 -17.220701 -1.354839 -4.245300 60.082771 -2.482227 -10.504043 21.125426 -4.256000 -0.000001 -58.997301
5.502341 16.541638 -0.270679 28.992693 83.853994 49.915675 -8.338061 -1.141196 -0.528939 -11.507532 -5.912821 -45.270273 -1.612160 1.500394 37.816431 1.525097 6.766461 -9.369129 -0.092400 0.000000 -28.597800 12.302146 -0.864843 -3.650213 -0.414445 -3.498731 -18.503208 -1.451004 -4.327557 61.595698 -2.695806 -12.636643 19.486580 -5.033900 -0.000000 -56.060200
5.660564 16.581659 -0.286406 27.352918 83.786369 48.220114 -8.433750 -1.109783 -0.586305 -11.477787 -5.624102 -44.439453 -1.614593 1.475640 37.603087 1.534420 6.840317 -9.501446 -0.119700 0.000000 -28.643400 12.241242 -0.770015 -3.672325 -0.038728 -3.520990 -19.777201 -1.531519 -4.402964 62.868206 -2.862699 -14.314735 17.568218 -5.472100 0.000000 -52.959900
